<svg width="1979" height="228" viewBox="0 0 1979 228" fill="none" xmlns="http://www.w3.org/2000/svg">
<path d="M146.649 117.101L99.9171 118.315C99.4313 115.077 98.113 112.21 95.962 109.714C93.811 107.151 91.0008 105.161 87.5315 103.744C84.1315 102.26 80.1765 101.518 75.6663 101.518C69.7685 101.518 64.7379 102.665 60.5747 104.959C56.4809 107.252 54.4687 110.355 54.5381 114.268C54.4687 117.303 55.7176 119.934 58.2849 122.16C60.9216 124.386 65.6053 126.174 72.3358 127.523L103.144 133.189C119.103 136.157 130.968 141.082 138.739 147.962C146.58 154.843 150.535 163.95 150.604 175.282C150.535 185.941 147.274 195.216 140.821 203.108C134.437 211.001 125.694 217.139 114.592 221.524C103.49 225.841 90.7927 228 76.499 228C53.6707 228 35.6648 223.447 22.4813 214.34C9.36722 205.166 1.87345 192.889 0 177.509L50.2708 176.294C51.381 181.961 54.2605 186.278 58.9094 189.246C63.5583 192.214 69.4909 193.698 76.7072 193.698C83.2295 193.698 88.5376 192.518 92.6314 190.157C96.7252 187.796 98.8069 184.659 98.8762 180.746C98.8069 177.239 97.211 174.439 94.0885 172.348C90.9661 170.189 86.0744 168.503 79.4132 167.289L51.5197 162.128C35.4914 159.295 23.5568 154.067 15.7161 146.445C7.87541 138.755 3.98974 128.973 4.05913 117.101C3.98974 106.713 6.83461 97.842 12.5937 90.4892C18.3528 83.0689 26.5405 77.4025 37.1567 73.49C47.7728 69.5775 60.2972 67.6213 74.7296 67.6213C96.3783 67.6213 113.447 72.0397 125.937 80.8766C138.427 89.646 145.331 101.721 146.649 117.101Z" fill="#2563EB"/>
<path d="M250.287 228C233.495 228 219.063 224.661 206.99 217.983C194.986 211.237 185.723 201.86 179.2 189.853C172.747 177.778 169.521 163.781 169.521 147.861C169.521 131.874 172.747 117.877 179.2 105.869C185.723 93.7945 194.986 84.418 206.99 77.7398C219.063 70.9941 233.495 67.6213 250.287 67.6213C267.079 67.6213 281.476 70.9941 293.48 77.7398C305.554 84.418 314.817 93.7945 321.27 105.869C327.792 117.877 331.053 131.874 331.053 147.861C331.053 163.781 327.792 177.778 321.27 189.853C314.817 201.86 305.554 211.237 293.48 217.983C281.476 224.661 267.079 228 250.287 228ZM250.599 190.663C256.705 190.663 261.875 188.841 266.107 185.199C270.34 181.556 273.566 176.497 275.787 170.021C278.076 163.545 279.221 156.057 279.221 147.558C279.221 138.923 278.076 131.368 275.787 124.892C273.566 118.416 270.34 113.357 266.107 109.714C261.875 106.072 256.705 104.25 250.599 104.25C244.285 104.25 238.942 106.072 234.571 109.714C230.269 113.357 226.973 118.416 224.683 124.892C222.463 131.368 221.353 138.923 221.353 147.558C221.353 156.057 222.463 163.545 224.683 170.021C226.973 176.497 230.269 181.556 234.571 185.199C238.942 188.841 244.285 190.663 250.599 190.663Z" fill="#2563EB"/>
<path d="M460.269 157.98V69.645H511.06V225.066H462.559V196.127H460.893C457.355 205.638 451.318 213.193 442.783 218.792C434.318 224.324 424.084 227.089 412.08 227.089C401.186 227.089 391.611 224.661 383.354 219.804C375.097 214.947 368.678 208.168 364.099 199.466C359.519 190.696 357.195 180.443 357.125 168.705V69.645H408.021V158.992C408.09 167.424 410.38 174.068 414.89 178.925C419.4 183.782 425.541 186.21 433.312 186.21C438.377 186.21 442.922 185.131 446.947 182.973C451.04 180.746 454.267 177.542 456.626 173.36C459.055 169.11 460.269 163.983 460.269 157.98Z" fill="#2563EB"/>
<path d="M460.633 225.066V159.767L459.541 69.6329H511.056L511.497 225.386L460.633 225.066ZM485.572 48.238C478.277 48.238 472.008 45.8967 466.766 41.214C461.525 36.4625 458.904 30.747 458.904 24.0674C458.904 17.4566 461.525 11.8099 466.766 7.12725C472.008 2.37575 478.277 0 485.572 0C492.939 0 499.208 2.37575 504.378 7.12725C509.62 11.8099 512.241 17.4566 512.241 24.0674C512.241 30.747 509.62 36.4625 504.378 41.214C499.208 45.8967 492.939 48.238 485.572 48.238Z" fill="#2563EB"/>
<path d="M597.236 134.336V224.821H545.28V66.1628H594.686V95.2915H596.492C600.104 85.5819 606.267 77.9726 614.979 72.4637C623.692 66.8858 634.068 64.0969 646.11 64.0969C657.585 64.0969 667.537 66.6104 675.966 71.6373C684.466 76.5954 691.053 83.5505 695.728 92.5026C700.474 101.386 702.811 111.784 702.74 123.697V224.821H650.785V133.613C650.856 124.799 648.554 117.913 643.879 112.955C639.275 107.997 632.864 105.518 624.648 105.518C619.194 105.518 614.377 106.688 610.198 109.03C606.09 111.302 602.902 114.573 600.636 118.842C598.44 123.112 597.306 128.277 597.236 134.336Z" fill="#2563EB"/>
<path d="M827.662 66.1628V103.348H722.689V66.1628H827.662ZM744.576 224.821V58.1059C744.576 45.8484 746.949 35.6913 751.695 27.6344C756.44 19.5086 763.028 13.4487 771.457 9.45475C779.886 5.39187 789.625 3.36043 800.675 3.36043C807.9 3.36043 814.7 3.91133 821.075 5.01314C827.521 6.04607 832.302 6.97571 835.418 7.80206L827.131 44.7811C825.219 44.1613 822.881 43.6448 820.119 43.2317C817.427 42.8185 814.877 42.6119 812.469 42.6119C806.377 42.6119 802.198 43.9203 799.931 46.5371C797.665 49.1538 796.531 52.7347 796.531 57.2796V224.821H744.576Z" fill="#2563EB"/>
<path d="M852.657 13.2766H904.613V175.241C904.684 179.372 905.64 182.437 907.482 184.434C909.324 186.362 912.228 187.326 916.194 187.326C918.248 187.257 919.878 187.154 921.082 187.016C922.286 186.809 923.277 186.568 924.057 186.293L931.919 221.929C929.511 222.687 926.607 223.444 923.207 224.202C919.877 224.959 915.061 225.476 908.757 225.751C889.561 226.577 875.43 223.41 866.364 216.248C857.297 209.017 852.728 197.208 852.657 180.818V13.2766Z" fill="#2563EB"/>
<path d="M1052.33 156.338V66.1628H1104.17V224.821H1054.66V195.279H1052.96C1049.35 204.989 1043.19 212.702 1034.48 218.417C1025.83 224.064 1015.39 226.887 1003.13 226.887C992.011 226.887 982.237 224.408 973.808 219.45C965.379 214.492 958.826 207.571 954.152 198.688C949.477 189.736 947.104 179.269 947.033 167.287V66.1628H998.988V157.371C999.059 165.979 1001.4 172.761 1006 177.72C1010.6 182.678 1016.87 185.157 1024.81 185.157C1029.98 185.157 1034.62 184.055 1038.73 181.851C1042.9 179.579 1046.2 176.308 1048.61 172.038C1051.09 167.7 1052.33 162.467 1052.33 156.338Z" fill="#2563EB"/>
<path d="M1213.53 227.817C1196.46 227.817 1181.73 224.546 1169.33 218.004C1157.01 211.393 1147.52 201.993 1140.86 189.805C1134.27 177.547 1130.98 162.983 1130.98 146.112C1130.98 129.723 1134.3 115.399 1140.96 103.142C1147.62 90.8155 1157.01 81.2436 1169.12 74.4262C1181.23 67.54 1195.5 64.0969 1211.94 64.0969C1223.55 64.0969 1234.18 65.8529 1243.81 69.3649C1253.45 72.8768 1261.77 78.0759 1268.78 84.9622C1275.79 91.8484 1281.25 100.353 1285.14 110.476C1289.04 120.53 1290.99 132.064 1290.99 145.079V157.681H1149.14V128.345H1242.64C1242.57 122.974 1241.26 118.188 1238.71 113.988C1236.16 109.787 1232.66 106.516 1228.19 104.175C1223.8 101.765 1218.74 100.559 1213 100.559C1207.19 100.559 1201.99 101.833 1197.38 104.381C1192.78 106.86 1189.13 110.269 1186.44 114.607C1183.75 118.877 1182.33 123.732 1182.19 129.172V159.023C1182.19 165.497 1183.5 171.178 1186.12 176.067C1188.74 180.887 1192.46 184.64 1197.27 187.326C1202.09 190.011 1207.83 191.354 1214.49 191.354C1219.09 191.354 1223.27 190.735 1227.02 189.495C1230.78 188.255 1234 186.431 1236.69 184.02C1239.38 181.61 1241.4 178.649 1242.75 175.137L1290.46 176.48C1288.47 186.878 1284.12 195.934 1277.39 203.646C1270.73 211.29 1261.98 217.246 1251.14 221.516C1240.31 225.717 1227.77 227.817 1213.53 227.817Z" fill="#2563EB"/>
<path d="M1369.48 134.336V224.821H1317.52V66.1628H1366.93V95.2915H1368.73C1372.35 85.5819 1378.51 77.9726 1387.22 72.4637C1395.93 66.8858 1406.31 64.0969 1418.35 64.0969C1429.83 64.0969 1439.78 66.6104 1448.21 71.6373C1456.71 76.5954 1463.3 83.5505 1467.97 92.5026C1472.72 101.386 1475.05 111.784 1474.98 123.697V224.821H1423.03V133.613C1423.1 124.799 1420.8 117.913 1416.12 112.955C1411.52 107.997 1405.11 105.518 1396.89 105.518C1391.44 105.518 1386.62 106.688 1382.44 109.03C1378.33 111.302 1375.14 114.573 1372.88 118.842C1370.68 123.112 1369.55 128.277 1369.48 134.336Z" fill="#2563EB"/>
<path d="M1583.33 227.817C1566.12 227.817 1551.35 224.374 1539.02 217.487C1526.77 210.601 1517.35 201.029 1510.76 188.772C1504.18 176.446 1500.88 162.191 1500.88 146.009C1500.88 129.757 1504.18 115.503 1510.76 103.245C1517.42 90.9188 1526.88 81.3125 1539.13 74.4262C1551.46 67.54 1566.15 64.0969 1583.22 64.0969C1598.31 64.0969 1611.45 66.7481 1622.64 72.0505C1633.9 77.3529 1642.69 84.8589 1648.99 94.5684C1655.37 104.209 1658.73 115.537 1659.09 128.552H1610.53C1609.54 120.426 1606.7 114.056 1602.03 109.443C1597.43 104.829 1591.41 102.522 1583.97 102.522C1577.95 102.522 1572.67 104.175 1568.14 107.48C1563.6 110.717 1560.06 115.537 1557.51 121.941C1555.03 128.276 1553.79 136.127 1553.79 145.492C1553.79 154.857 1555.03 162.776 1557.51 169.25C1560.06 175.654 1563.6 180.508 1568.14 183.814C1572.67 187.05 1577.95 188.669 1583.97 188.669C1588.78 188.669 1593.03 187.67 1596.72 185.673C1600.47 183.676 1603.55 180.75 1605.96 176.893C1608.37 172.968 1609.89 168.217 1610.53 162.639H1659.09C1658.59 175.723 1655.23 187.154 1648.99 196.932C1642.83 206.711 1634.15 214.32 1622.96 219.76C1611.84 225.131 1598.63 227.817 1583.33 227.817Z" fill="#2563EB"/>
<path d="M1761.96 227.817C1744.89 227.817 1730.16 224.546 1717.76 218.004C1705.44 211.393 1695.94 201.993 1689.29 189.805C1682.7 177.547 1679.41 162.983 1679.41 146.112C1679.41 129.723 1682.73 115.399 1689.39 103.142C1696.05 90.8155 1705.44 81.2436 1717.55 74.4262C1729.66 67.54 1743.93 64.0969 1760.37 64.0969C1771.98 64.0969 1782.61 65.8529 1792.24 69.3649C1801.87 72.8768 1810.2 78.0759 1817.21 84.9622C1824.22 91.8484 1829.68 100.353 1833.57 110.476C1837.47 120.53 1839.42 132.064 1839.42 145.079V157.681H1697.57V128.345H1791.07C1791 122.974 1789.69 118.188 1787.14 113.988C1784.59 109.787 1781.09 106.516 1776.62 104.175C1772.23 101.765 1767.17 100.559 1761.43 100.559C1755.62 100.559 1750.42 101.833 1745.81 104.381C1741.21 106.86 1737.56 110.269 1734.87 114.607C1732.18 118.877 1730.76 123.732 1730.62 129.172V159.023C1730.62 165.497 1731.93 171.178 1734.55 176.067C1737.17 180.887 1740.89 184.64 1745.7 187.326C1750.52 190.011 1756.26 191.354 1762.92 191.354C1767.52 191.354 1771.7 190.735 1775.45 189.495C1779.21 188.255 1782.43 186.431 1785.12 184.02C1787.81 181.61 1789.83 178.649 1791.18 175.137L1838.88 176.48C1836.9 186.878 1832.55 195.934 1825.82 203.646C1819.16 211.29 1810.41 217.246 1799.57 221.516C1788.74 225.717 1776.2 227.817 1761.96 227.817Z" fill="#2563EB"/>
<path d="M1865.95 224.821V66.1628H1916.42V95.0849H1918.12C1921.09 84.6178 1925.95 76.8364 1932.68 71.7406C1939.4 66.576 1947.23 63.9936 1956.16 63.9936C1960.48 63.9936 1964.59 64.5101 1968.48 65.543C1972.38 66.5759 1975.88 67.9876 1979 69.7781L1963.7 111.302C1961.43 110.2 1958.99 109.271 1956.37 108.513C1953.82 107.756 1950.99 107.377 1947.87 107.377C1942.49 107.377 1937.49 108.685 1932.89 111.302C1928.35 113.919 1924.74 117.568 1922.05 122.251C1919.36 126.865 1917.98 132.339 1917.91 138.675V224.821H1865.95Z" fill="#2563EB"/>
</svg>
