<svg width="512" height="512" viewBox="0 0 512 512" fill="none" xmlns="http://www.w3.org/2000/svg">
<mask id="mask0_112935_237" style="mask-type:alpha" maskUnits="userSpaceOnUse" x="0" y="0" width="512" height="512">
<rect width="512" height="512" rx="8" fill="#D9D9D9"/>
</mask>
<g mask="url(#mask0_112935_237)">
<rect width="512" height="512" rx="38" fill="url(#paint0_linear_112935_237)"/>
</g>
<path d="M279.075 301.749V210.936H329.831V370.717H281.363V340.966H279.698C276.162 350.745 270.13 358.512 261.601 364.267C253.141 369.955 242.914 372.797 230.917 372.797C220.032 372.797 210.462 370.301 202.21 365.308C193.959 360.314 187.545 353.345 182.969 344.399C178.392 335.383 176.069 324.843 176 312.776V210.936H226.861V302.789C226.93 311.458 229.218 318.289 233.726 323.282C238.233 328.276 244.37 330.772 252.136 330.772C257.197 330.772 261.739 329.662 265.761 327.442C269.852 325.154 273.076 321.861 275.434 317.56C277.861 313.191 279.075 307.921 279.075 301.749Z" fill="white"/>
<path d="M283.467 372.468V304.732L282.356 211.232H334.794L335.243 372.8L283.467 372.468ZM308.853 189.039C301.427 189.039 295.046 186.61 289.71 181.753C284.375 176.824 281.707 170.895 281.707 163.966C281.707 157.108 284.375 151.251 289.71 146.393C295.046 141.464 301.427 139 308.853 139C316.353 139 322.733 141.464 327.997 146.393C333.332 151.251 336 157.108 336 163.966C336 170.895 333.332 176.824 327.997 181.753C322.733 186.61 316.353 189.039 308.853 189.039Z" fill="white"/>
<defs>
<linearGradient id="paint0_linear_112935_237" x1="256" y1="-2.75635e-06" x2="165.05" y2="523.422" gradientUnits="userSpaceOnUse">
<stop offset="1" stop-color="#2563EB"/>
</linearGradient>
</defs>
</svg>
