<svg width="248" height="365" viewBox="0 0 248 365" fill="none" xmlns="http://www.w3.org/2000/svg">
    <path d="M159.766 253.849V112.202H238.439V361.423H163.312V315.018H160.733C155.251 330.27 145.901 342.385 132.681 351.362C119.568 360.233 103.716 364.666 85.1217 364.666C68.249 364.666 53.4161 360.773 40.6262 352.986C27.8364 345.197 17.8951 334.327 10.8023 320.372C3.70786 306.31 0.107615 289.869 0 271.047V112.202H78.8344V255.471C78.942 268.992 82.4885 279.647 89.4753 287.435C96.4605 295.224 105.973 299.117 118.011 299.117C125.856 299.117 132.896 297.386 139.13 293.924C145.471 290.355 150.468 285.218 154.122 278.511C157.884 271.695 159.766 263.476 159.766 253.849Z" fill="#2563EB"/>
    <path d="M166.574 364.153V258.502L164.852 112.665H246.13L246.826 364.671L166.574 364.153ZM205.922 78.0482C194.412 78.0482 184.522 74.2601 176.25 66.6835C167.981 58.9958 163.845 49.748 163.845 38.9406C163.845 28.2445 167.981 19.1082 176.25 11.5318C184.522 3.84392 194.412 0 205.922 0C217.546 0 227.437 3.84392 235.595 11.5318C243.865 19.1082 248 28.2445 248 38.9406C248 49.748 243.865 58.9958 235.595 66.6835C227.437 74.2601 217.546 78.0482 205.922 78.0482Z" fill="#2563EB"/>
</svg>
